# xmcd
#
# Track frame offsets:
#	150
#	19872
#	36506
#	54564
#	72570
#	91516
#	111238
#	126844
#	145049
#	165997
#	183957
#
# Disc length: 2713 seconds
#
# Revision: 1
# Processed by: cddbd v1.5.1PL2 Copyright (c) Steve Scherf et al.
# Submitted via: EasyCDDAExtractor 6.5.0.1
#
DISCID=910a970b
DTITLE=Juan Manuel - Exitos
DYEAR=2000
DGENRE=Bachata
TTITLE0=El Perrito
TTITLE1=Pasion Y Lluvia
TTITLE2=Si Quiere Tu Quiero Yo
TTITLE3=Te Amo Mas Que Mi Vida
TTITLE4=El Hombre Que Te Mima
TTITLE5=El Perrito
TTITLE6=Ven
TTITLE7=Amor De La Calle
TTITLE8=Vuelvo
TTITLE9=Soy Pobre
TTITLE10=El Perrito
EXTD=
EXTT0=
EXTT1=
EXTT2=
EXTT3=
EXTT4=
EXTT5=
EXTT6=
EXTT7=
EXTT8=
EXTT9=
EXTT10=
PLAYORDER=
